<svg xmlns="http://www.w3.org/2000/svg" width="400" height="800" viewBox="0 0 400 800" fill="none">
  <defs>
    <linearGradient id="bg" x1="0" y1="0" x2="1" y2="1">
      <stop offset="0" stop-color="#fbcfe8"/>
      <stop offset="1" stop-color="#e9d5ff"/>
    </linearGradient>
  </defs>
  <rect x="40" y="20" width="320" height="760" rx="48" fill="#111"/>
  <rect x="50" y="70" width="300" height="660" rx="36" fill="white"/>
  <rect x="50" y="70" width="300" height="660" rx="36" fill="url(#bg)" opacity=".4"/>
  <rect x="182" y="38" width="36" height="6" rx="3" fill="#333"/>
  <circle cx="200" cy="48" r="5" fill="#333"/>
  <g opacity=".9">
    <rect x="72" y="110" width="256" height="120" rx="16" fill="#fff"/>
    <text x="92" y="146" font-family="Inter, Arial" font-size="16" fill="#111">Lashess By Prii</text>
    <rect x="92" y="160" width="80" height="8" rx="4" fill="#f472b6"/>
    <rect x="92" y="176" width="180" height="8" rx="4" fill="#fbcfe8"/>
  </g>
  <g opacity=".9">
    <rect x="72" y="250" width="256" height="140" rx="16" fill="#fff"/>
    <rect x="92" y="270" width="120" height="8" rx="4" fill="#111111" opacity=".6"/>
    <rect x="92" y="288" width="180" height="8" rx="4" fill="#111111" opacity=".2"/>
    <rect x="92" y="306" width="160" height="8" rx="4" fill="#111111" opacity=".2"/>
    <rect x="92" y="330" width="100" height="28" rx="8" fill="#ec4899"/>
  </g>
  <g opacity=".9">
    <rect x="72" y="410" width="256" height="210" rx="16" fill="#fff"/>
    <rect x="92" y="430" width="60" height="60" rx="10" fill="#fdf2f8"/>
    <rect x="160" y="430" width="60" height="60" rx="10" fill="#faf5ff"/>
    <rect x="228" y="430" width="60" height="60" rx="10" fill="#fdf2f8"/>
    <rect x="92" y="500" width="196" height="8" rx="4" fill="#111111" opacity=".2"/>
    <rect x="92" y="518" width="150" height="8" rx="4" fill="#111111" opacity=".2"/>
    <rect x="92" y="536" width="100" height="28" rx="8" fill="#ec4899"/>
  </g>
  <rect x="190" y="740" width="20" height="6" rx="3" fill="#333"/>
</svg>
